<svg width="40" height="40" viewBox="0 0 40 40" fill="none" xmlns="http://www.w3.org/2000/svg"><rect width="40" height="40" rx="20" fill="#121212" fill-opacity=".1"/><path d="M26.683 10.426L13.317 30.359" stroke="#121212"/><path d="M25.477 23.375c0 1.35-.485 2.392-1.456 3.123-.97.717-2.208 1.09-3.713 1.118V30H19.19v-2.447c-1.49-.14-2.672-.605-3.544-1.393-.858-.787-1.407-1.807-1.646-3.059h1.118c.591 2.307 2.265 3.46 5.022 3.46 1.294 0 2.32-.274 3.08-.823.76-.548 1.139-1.315 1.139-2.3 0-.871-.33-1.49-.992-1.856-.66-.38-1.856-.76-3.586-1.139a28.181 28.181 0 01-2.278-.59 9.625 9.625 0 01-1.646-.74c-.506-.294-.872-.653-1.097-1.075-.225-.422-.338-.935-.338-1.54 0-1.252.464-2.236 1.393-2.954.928-.731 2.11-1.11 3.544-1.139V10h1.118v2.426c1.294.127 2.342.506 3.144 1.14a4.642 4.642 0 011.624 2.426h-1.118c-.703-1.702-2.208-2.553-4.515-2.553-1.223 0-2.208.267-2.953.802-.746.534-1.118 1.3-1.118 2.3 0 .716.309 1.265.928 1.645.619.38 1.807.766 3.565 1.16.788.169 1.407.316 1.857.443a11.1 11.1 0 011.477.527c.52.211.907.444 1.16.697.267.253.492.583.675.991.183.394.274.851.274 1.371z" fill="#121212"/></svg>