<svg width="31" height="25" viewBox="0 0 31 25" fill="none" xmlns="http://www.w3.org/2000/svg"><path d="M29.714 9.343L23.55 1.286m6.164 8.057H20.68m9.034 0l-14 13.943m7.836-22l-2.87 8.057m2.87-8.057h-7.882m5.012 8.057l-4.966 13.943M20.68 9.343l-5.012-8.057m5.012 8.057h-4.967m-13.999 0l6.073-8.057M1.714 9.343h8.976m-8.976 0l14 13.943m-7.927-22l2.903 8.057M7.787 1.286h7.881M10.69 9.343l5.024 13.943M10.69 9.343l4.978-8.057m.046 22L10.69 9.342m5.025 13.944L20.68 9.342h-4.967m0 0H10.69m0 0l4.979-8.056" stroke="#608BFA" stroke-width="1.5" stroke-linejoin="round"/></svg>